<?xml version="1.0" encoding="UTF-8"?>
<!DOCTYPE svg PUBLIC "-//W3C//DTD SVG 1.0//EN" "http://www.w3.org/TR/2001/REC-SVG-20010904/DTD/svg10.dtd">
<!-- Creator: CorelDRAW 2019 (64 Bit Versão de avaliação) -->
<svg xmlns="http://www.w3.org/2000/svg" xml:space="preserve" width="1398px" height="1826px" version="1.0" style="shape-rendering:geometricPrecision; text-rendering:geometricPrecision; image-rendering:optimizeQuality; fill-rule:evenodd; clip-rule:evenodd"
viewBox="0 0 169 220"
 xmlns:xlink="http://www.w3.org/1999/xlink">
 <defs>
  <style type="text/css">
   <![CDATA[
    .str0 {stroke:black;stroke-width:0;stroke-miterlimit:22.9256}
    .fil0 {fill:black}
   ]]>
  </style>
 </defs>
 <g id="Camada_x0020_1">
  <metadata id="CorelCorpID_0Corel-Layer"/>
  <path class="fil0 str0" d="M38 216c1,0 2,0 3,1 2,0 4,1 7,1l7 0c1,0 2,0 4,0l4 0c1,0 3,0 4,0 1,0 2,0 3,0 1,0 1,0 2,0 0,0 1,0 2,0l7 1c1,0 2,0 3,0l9 1c4,0 9,0 12,-1 4,-1 5,-2 9,-2 1,0 2,0 4,0 1,0 1,0 2,0 1,0 1,0 2,0 5,0 11,-1 15,-2 0,0 1,0 1,-1 1,0 2,-1 2,-2 1,-1 0,-4 0,-6l-1 -14c0,-1 0,-2 0,-3 0,-2 -1,-8 -1,-10 -1,-3 0,-4 -1,-7l-1 -18c0,-1 0,-3 0,-4 0,-1 0,-2 0,-4l0 -4c0,-1 0,-3 0,-4 0,-1 0,-1 0,-2 0,-1 0,-1 0,-2 0,-1 0,-2 0,-4 0,-1 0,-2 0,-4 0,-1 0,-2 0,-4 0,-1 0,-1 0,-2l0 -24c0,-1 0,-1 0,-2 0,-1 0,-1 0,-2 0,-1 0,-1 0,-2 0,-1 0,-1 0,-2l0 0c0,0 0,0 1,0 0,0 0,0 0,0 0,0 0,0 0,0 0,0 1,0 1,0 1,0 2,0 3,0 2,0 8,-2 11,-3 1,0 2,-1 4,-1 3,-1 11,-3 13,-4 0,0 0,0 1,0l-2 -7c0,-1 -1,-2 -1,-4 -1,-3 -1,-5 -2,-7 -1,-3 -1,-4 -2,-7l-1 -3c0,0 0,-1 0,-1 0,-1 0,0 0,-1 0,-1 -1,-2 -1,-3 -1,-4 -1,-6 -2,-10 -1,-4 -3,-7 -4,-11 -2,-3 -2,-3 -3,-5 -2,-3 -7,-6 -11,-8l-18 -9 -11 -5c-1,0 -1,0 -1,-1 0,0 -2,-1 -2,-1 -1,-2 -8,-1 -10,-1l-6 0c-3,0 -9,0 -12,0 -2,0 -4,0 -6,0 -1,0 -7,0 -9,0 -1,0 -2,0 -2,1 0,0 -1,0 -1,1 -4,2 -3,2 -7,3 -3,1 -10,4 -13,6l-10 5c0,0 -1,0 -1,1 -1,0 -5,2 -6,3 0,0 -1,1 -1,1l-3 2c0,0 -1,1 -1,1 -1,0 -3,3 -3,4l-2 3c0,1 -1,1 -1,2 -2,3 -2,3 -3,7 -1,3 -1,5 -2,8 0,1 -1,3 -1,4 0,1 -1,3 -1,4l-1 6c0,1 0,1 0,2l-1 4c0,1 0,1 -1,2l-2 10c0,1 -1,3 -1,4 1,0 1,1 2,1 1,0 1,0 2,1l10 3c0,0 1,0 1,0l3 1c1,0 2,1 3,1l3 1c0,0 0,0 1,0l4 1c0,0 2,0 2,0l2 0c1,0 2,0 3,-1 0,3 0,7 0,10 0,1 0,2 0,3 0,3 0,7 0,10 0,1 0,2 0,3l0 5c0,0 0,1 0,2l1 8c0,1 0,1 0,2 0,1 0,1 0,2 0,1 0,3 0,5l-1 6c0,1 0,2 0,3 0,1 0,2 0,3l0 3c0,4 0,9 -1,13 -1,4 -2,7 -2,12 0,2 -1,4 -1,6l0 6c0,1 0,1 0,1l0 8 -1 7c0,1 0,2 0,2 0,1 1,1 1,1 0,0 0,0 0,0 0,0 0,0 1,0l3 1c1,0 1,0 2,0z"/>
 </g>
</svg>
